<svg xmlns="http://www.w3.org/2000/svg" version="1.1" xmlns:xlink="http://www.w3.org/1999/xlink" xmlns:svgjs="http://svgjs.com/svgjs" width="1920" height="1080" preserveAspectRatio="none" viewBox="0 0 1920 1080">
    <g mask="url(&quot;#SvgjsMask1052&quot;)" fill="none">
        <rect width="1920" height="1080" x="0" y="0" fill="rgba(0, 34, 63, 1)"></rect>
        <path d="M370.9700844997844 270.7179678897836L137.4757880352461 464.66854066653895 313.42636081200146 698.1628371310773 546.9206572765397 522.2122643543219z" fill="rgba(28, 83, 142, 0.85)" class="triangle-float1"></path>
        <path d="M1154.3923688023733 84.44195818668636L1020.3767509463557 32.99818235871112 1010.2188961324017 259.7434970567252z" fill="rgba(28, 83, 255, 0.85)" class="triangle-float2"></path>
        <path d="M1431.23,733.464C1514.85,735.66,1602.637,708.467,1644.01,635.766C1685.044,563.662,1658.304,477.598,1618.16,404.994C1576.285,329.259,1517.764,252.039,1431.23,250.938C1343.419,249.821,1276.347,322.194,1235.879,400.132C1198.845,471.456,1196.33,555.741,1236.965,625.077C1277.15,693.645,1351.781,731.378,1431.23,733.464" fill="rgba(28, 83, 142, 0.85)" class="triangle-float1"></path>
        <path d="M1333.045334455294 539.949975324455L1104.7244569980032 423.6146776090664 1216.7100367399055 768.2708527817458z" fill="rgba(28, 83, 142, 0.85)" class="triangle-float3"></path>
        <path d="M1444.5706536835037 535.2086234156088L1277.5090725482812 647.8930827284785 1390.1935318611509 814.9546638637011 1557.2551129963733 702.2702045508314z" fill="rgba(28, 83, 142, 0.85)" class="triangle-float2"></path>
        <path d="M642.353,652.791C744.588,649.133,800.108,544.151,848.424,453.98C893.044,370.707,931.281,277.095,888.901,192.66C842.713,100.638,745.31,44.569,642.353,43.423C537.411,42.255,436.5,95.003,386.114,187.065C337.475,275.935,360.213,380.942,409.049,469.703C460.124,562.533,536.468,656.58,642.353,652.791" fill="rgba(28, 150, 255, 0.85)" class="triangle-float1"></path>
        <path d="M1015.702,1238.255C1115.959,1246.217,1225.148,1227.818,1281.034,1144.202C1342.291,1052.549,1341.079,930.439,1284.78,835.66C1229.593,742.754,1123.391,688.554,1015.702,697.519C920.208,705.468,856.679,788.802,814.44,874.814C777.85,949.322,774.323,1034.539,814.536,1107.156C856.094,1182.202,930.186,1231.464,1015.702,1238.255" fill="rgba(28, 83, 142, 0.85)" class="triangle-float2"></path>
        <path d="M1142.6802098505182 1235.785090321201L1386.9881083763885 1127.0122058500367 1278.215223905224 882.7043073241663 1033.9073253793538 991.4771917953308z" fill="rgba(254, 83, 142, 0.85)" class="triangle-float3"></path>
        <path d="M419.0279675431844 408.1134802680725L516.7579169677476 347.04503010901436 376.2902670168787 230.98433105169863z" fill="rgba(28, 83, 142, 0.85)" class="triangle-float2"></path>
        <path d="M113.22188474920505 381.21617236968586L361.5031425041618 337.4374878232542 69.44320020277337 132.9349146147291z" fill="rgba(28, 253, 142, 0.85)" class="triangle-float3"></path>
    </g>
    <defs>
        <mask id="SvgjsMask1052">
            <rect width="1920" height="1080" fill="#ffffff"></rect>
        </mask>
        <style>
            @keyframes float1 {
                0%{transform: translate(0, 0)}
                50%{transform: rotate(-40deg)}
                100%{transform: translate(0, 0)}
            }

            .triangle-float1 {
                animation: float1 6s infinite;
            }

            @keyframes float2 {
                0%{transform: translate(0, 0)}
                50%{transform: rotate(60deg)}
                100%{transform: translate(0, 0)}
            }

            .triangle-float2 {
                animation: float2 4s infinite;
            }

            @keyframes float3 {
                0%{transform: translate(0, 0)}
                50%{transform: rotate(320deg)}
                100%{transform: translate(0, 0)}
            }

            .triangle-float3 {
                animation: float3 4s infinite;
            }
        </style>
    </defs>
</svg>