<svg id="visual" viewBox="0 0 1920 1080" width="1920" height="1080"
    xmlns="http://www.w3.org/2000/svg"
    xmlns:xlink="http://www.w3.org/1999/xlink" version="1.1">
    <rect x="0" y="0" width="1920" height="1080" fill="#ffffff"></rect>
    <defs>
        <style>
            @keyframes float1 {
                0%{transform: scale(1.0)}
                20%{transform: scale(1.2)}
                40%{transform: scale(1.25)}
                60%{transform: scale(1.25)}
                80%{transform: scale(1.2)}
                100%{transform: scale(1.0)}
            }
            @keyframes float2 {
                0%{transform: scale(1.0)}
                20%{transform: scale(1.0)}
                40%{transform: scale(1.2)}
                60%{transform: scale(1.3)}
                80%{transform: scale(1.2)}
                100%{transform: scale(1.0)}
            }
            @keyframes float3 {
                0%{transform: scale(1.0)}
                20%{transform: scale(1.0)}
                40%{transform: scale(1.0)}
                60%{transform: scale(1.3)}
                80%{transform: scale(1.2)}
                100%{transform: scale(1.0)}
            }
            @keyframes float4 {
                0%{transform: scale(1.0)}
                20%{transform: scale(1.0)}
                40%{transform: scale(1.0)}
                60%{transform: scale(1.3)}
                80%{transform: scale(1.2)}
                100%{transform: scale(1.0)}
            }

            .moveA {
                animation: float1 10s infinite;
            }
            .moveB {
                animation: float2 10s infinite;
            }
            .moveC {
                animation: float3 10s infinite;
            }
            .moveD {
                animation: float4 10s infinite;
            }
        </style>
    </defs>
    <g transform="translate(1920, 0)">
        <path d="M0 857C-141.4 822.3 -282.7 787.6 -416.5 721.4C-550.3 655.2 -676.4 557.5 -748.2 432C-820.1 306.5 -837.5 153.3 -855 0L0 0Z" fill="#dbfafb" class="moveA"></path>
        <path d="M0 642.8C-106 616.7 -212.1 590.7 -312.4 541C-412.7 491.4 -507.3 418.1 -561.2 324C-615 229.9 -628.1 114.9 -641.2 0L0 0Z" fill="#c4f7f8" class="moveB"></path>
        <path d="M0 428.5C-70.7 411.2 -141.4 393.8 -208.2 360.7C-275.1 327.6 -338.2 278.7 -374.1 216C-410 153.3 -418.8 76.6 -427.5 0L0 0Z" fill="#adf4f6" class="moveC"></path>
        <path d="M0 214.3C-35.3 205.6 -70.7 196.9 -104.1 180.3C-137.6 163.8 -169.1 139.4 -187.1 108C-205 76.6 -209.4 38.3 -213.7 0L0 0Z" fill="#96f0f3" class="moveD"></path>
    </g>
    <g transform="translate(0, 1080)">
        <path d="M0 -792C149.7 -799.1 299.5 -806.3 432 -748.2C564.5 -690.2 679.9 -567.1 747.4 -431.5C814.8 -295.9 834.4 -148 854 0L0 0Z" fill="#dbfafb" class="moveA"></path>
        <path d="M0 -594C112.3 -599.3 224.6 -604.7 324 -561.2C423.4 -517.7 509.9 -425.3 560.5 -323.6C611.1 -222 625.8 -111 640.5 0L0 0Z" fill="#c4f7f8" class="moveB"></path>
        <path d="M0 -396C74.9 -399.6 149.7 -403.1 216 -374.1C282.3 -345.1 340 -283.5 373.7 -215.8C407.4 -148 417.2 -74 427 0L0 0Z" fill="#adf4f6" class="moveC"></path>
        <path d="M0 -198C37.4 -199.8 74.9 -201.6 108 -187.1C141.1 -172.6 170 -141.8 186.8 -107.9C203.7 -74 208.6 -37 213.5 0L0 0Z" fill="#96f0f3" class="moveD"></path>
    </g>
</svg>